HIERARCHY
ROOT Hips
{
	OFFSET -148.214600 91.510246 -151.741394
	CHANNELS 6 Xposition Yposition Zposition Zrotation Yrotation Xrotation 
	JOINT LeftUpLeg
	{
		OFFSET 0.103461 1.857822 10.548510
		CHANNELS 3 Xrotation Yrotation Zrotation
		JOINT LeftLeg
		{
			OFFSET 43.500000 -0.000019 0.000002
			CHANNELS 3 Xrotation Yrotation Zrotation
			JOINT LeftFoot
			{
				OFFSET 42.372192 0.000011 -0.000003
				CHANNELS 3 Xrotation Yrotation Zrotation
				JOINT LeftToe
				{
					OFFSET 17.299999 -0.000000 0.000010
					CHANNELS 3 Xrotation Yrotation Zrotation
					End Site
					{
						OFFSET 0.000000 0.000000 0.000000
					}
				}
			}
		}
	}
	JOINT RightUpLeg
	{
		OFFSET 0.103455 1.857820 -10.548494
		CHANNELS 3 Xrotation Yrotation Zrotation
		JOINT RightLeg
		{
			OFFSET 43.500046 -0.000011 0.000019
			CHANNELS 3 Xrotation Yrotation Zrotation
			JOINT RightFoot
			{
				OFFSET 42.372261 -0.000008 0.000011
				CHANNELS 3 Xrotation Yrotation Zrotation
				JOINT RightToe
				{
					OFFSET 17.299988 -0.000007 0.000010
					CHANNELS 3 Xrotation Yrotation Zrotation
					End Site
					{
						OFFSET 0.000000 0.000000 0.000000
					}
				}
			}
		}
	}
	JOINT Spine
	{
		OFFSET 6.901968 -2.603730 0.000000
		CHANNELS 3 Xrotation Yrotation Zrotation
		JOINT Spine1
		{
			OFFSET 12.588100 -0.000004 0.000000
			CHANNELS 3 Xrotation Yrotation Zrotation
			JOINT Spine2
			{
				OFFSET 12.343204 0.000010 -0.000008
				CHANNELS 3 Xrotation Yrotation Zrotation
				JOINT Neck
				{
					OFFSET 25.832897 0.000000 -0.000001
					CHANNELS 3 Xrotation Yrotation Zrotation
					JOINT Head
					{
						OFFSET 11.766605 0.000003 0.000004
						CHANNELS 3 Xrotation Yrotation Zrotation
						End Site
						{
							OFFSET 0.000000 0.000000 0.000000
						}
					}
				}
				JOINT LeftShoulder
				{
					OFFSET 19.745903 -1.480373 6.000118
					CHANNELS 3 Xrotation Yrotation Zrotation
					JOINT LeftArm
					{
						OFFSET 11.284121 -0.000002 -0.000023
						CHANNELS 3 Xrotation Yrotation Zrotation
						JOINT LeftForeArm
						{
							OFFSET 33.000046 -0.000008 0.000023
							CHANNELS 3 Xrotation Yrotation Zrotation
							JOINT LeftHand
							{
								OFFSET 25.200012 0.000016 0.000008
								CHANNELS 3 Xrotation Yrotation Zrotation
								End Site
								{
									OFFSET 0.000000 0.000000 0.000000
								}
							}
						}
					}
				}
				JOINT RightShoulder
				{
					OFFSET 19.746101 -1.480373 -6.000067
					CHANNELS 3 Xrotation Yrotation Zrotation
					JOINT RightArm
					{
						OFFSET 11.284146 -0.000018 -0.000007
						CHANNELS 3 Xrotation Yrotation Zrotation
						JOINT RightForeArm
						{
							OFFSET 33.000080 0.000028 0.000017
							CHANNELS 3 Xrotation Yrotation Zrotation
							JOINT RightHand
							{
								OFFSET 25.199787 0.000143 0.000415
								CHANNELS 3 Xrotation Yrotation Zrotation
								End Site
								{
									OFFSET 0.000000 0.000000 0.000000
								}
							}
						}
					}
				}
			}
		}
	}
}
MOTION
Frames: 5
Frame Time: 0.033333
-196.013504 89.759506 -192.853897 90.411323 -8.322664 -135.660903 172.708519 12.943208 178.291638 -19.449722 -3.468604 -12.911411 80.540942 10.550397 6.378496 21.454560 0.003102 0.000017 174.137913 17.073502 -169.948125 -75.205068 -8.054710 6.034869 76.276896 -1.309930 9.593148 21.454541 -0.003090 -0.000002 8.802511 -1.984837 2.260059 7.518151 -4.111874 4.389296 7.200199 -4.085447 4.414010 -15.689817 -3.077105 10.021331 -9.881749 -2.037761 9.012783 156.662983 -69.734251 22.817966 -2.495512 57.956129 21.550516 -50.505970 -17.118729 1.938116 8.947275 -15.770046 12.967720 165.545877 79.823048 -13.204124 -20.004033 -54.980728 -14.224558 -47.705108 16.853821 -1.800804 8.594372 9.252062 -5.894099 
-194.047501 90.247818 -195.119202 91.200395 -7.761235 -134.007506 175.495113 12.251001 179.763735 -18.697501 -3.547205 -12.516217 81.517106 10.229943 6.525047 21.454557 0.003109 0.000017 169.123639 14.268707 -172.224067 -80.456650 -8.239198 7.575930 75.714792 -2.592801 8.756827 21.454550 -0.003093 -0.000001 8.795640 -1.675973 1.771894 7.529934 -3.463354 3.432661 7.211825 -3.442707 3.453497 -15.330735 -2.581013 10.435699 -9.842260 -2.213616 9.686080 155.086070 -70.128441 24.413948 -2.993192 56.545886 21.414253 -55.092398 -15.914153 2.014122 5.998764 -13.128701 19.544428 168.285165 79.060690 -10.453119 -18.428909 -55.824656 -18.698915 -49.866050 16.668286 -1.857121 6.596634 5.442388 -10.694803 
-192.048004 90.680733 -197.168503 91.715473 -7.204904 -132.154011 178.011928 11.581101 -178.789272 -17.800672 -3.393963 -12.085436 82.143803 9.854348 6.433242 21.454558 0.003108 0.000019 164.398268 11.396604 -173.973797 -82.956254 -8.128293 7.515769 75.162175 -2.967841 7.176834 21.454553 -0.003092 -0.000004 8.781009 -1.404180 1.242283 7.521379 -2.885892 2.391562 7.203158 -2.871525 2.408938 -15.580437 -1.836112 10.766190 -8.897798 -2.313997 10.291831 153.520974 -70.488078 25.998062 -3.061095 54.893363 21.151136 -59.574945 -14.360521 2.071684 4.765938 -11.781295 23.805610 171.082059 78.313405 -7.634739 -16.376929 -57.439111 -22.499142 -51.487223 16.173756 -1.877244 7.559708 5.987194 -10.674881 
-189.992493 90.925369 -199.104202 91.779233 -6.793961 -130.167901 -179.973709 11.165214 -177.454107 -17.339719 -3.167207 -11.670883 82.841131 9.439230 6.144712 21.454562 0.003102 0.000015 160.010869 8.892510 -175.689363 -82.832784 -7.837384 6.354072 75.027046 -2.179532 7.059041 21.454555 -0.003093 0.000004 8.731277 -1.218284 0.692509 7.437326 -2.478372 1.305724 7.119000 -2.470570 1.320664 -15.562899 -1.064446 11.104466 -8.373712 -2.440639 10.949691 151.771011 -70.983492 27.759974 -2.676242 53.424637 20.755883 -63.936574 -12.861620 2.135705 4.592033 -10.334359 25.671630 173.904744 77.482151 -4.785186 -13.092236 -59.543718 -26.060085 -52.209030 15.792019 -1.875779 7.868936 7.191466 -8.943836 
-187.919006 90.989906 -200.961700 91.702735 -6.232379 -127.843396 -178.792045 10.562696 -176.227200 -18.022318 -3.023445 -11.109090 83.916660 8.884357 5.765159 21.454560 0.003120 0.000016 156.042078 6.509800 -176.990883 -80.043800 -7.536911 4.716333 75.029956 -1.006939 7.149444 21.454555 -0.003095 0.000002 8.671651 -1.012879 0.119100 7.330076 -2.031176 0.173980 7.011774 -2.030218 0.186231 -15.465941 -0.258701 11.526573 -8.500287 -2.560809 11.729323 150.171982 -71.593121 29.354961 -2.414359 52.335471 19.668477 -68.070526 -11.488510 2.205417 5.062958 -8.920597 25.967008 177.688970 76.695887 -0.944814 -9.730971 -61.777613 -29.332285 -51.499582 15.940348 -1.862059 7.363086 7.455738 -7.399806 
